<?xml version="1.0" encoding="UTF-8"?>
<svg id="Layer_2" data-name="Layer 2" xmlns="http://www.w3.org/2000/svg" xmlns:xlink="http://www.w3.org/1999/xlink" viewBox="0 0 371.4 418.37">
  <defs>
    <style>
      .cls-1 {
        fill: url(#linear-gradient);
      }

      .cls-1, .cls-2, .cls-3, .cls-4, .cls-5, .cls-6, .cls-7 {
        stroke-width: 0px;
      }

      .cls-2 {
        fill: url(#linear-gradient-6);
      }

      .cls-3 {
        fill: url(#linear-gradient-5);
      }

      .cls-4 {
        fill: url(#linear-gradient-2);
      }

      .cls-5 {
        fill: url(#linear-gradient-7);
      }

      .cls-6 {
        fill: url(#linear-gradient-3);
      }

      .cls-7 {
        fill: url(#linear-gradient-4);
      }
    </style>
    <linearGradient id="linear-gradient" x1="444.8" y1="479.95" x2="90.96" y2="74.82" gradientTransform="translate(0 419.84) scale(1 -1)" gradientUnits="userSpaceOnUse">
      <stop offset="0" stop-color="#3dbba6"/>
      <stop offset="1" stop-color="#0090cd"/>
    </linearGradient>
    <linearGradient id="linear-gradient-2" x1="294.24" y1="487.32" x2="-73.6" y2="66.15" xlink:href="#linear-gradient"/>
    <linearGradient id="linear-gradient-3" x1="372.14" y1="419.28" x2="4.3" y2="-1.89" xlink:href="#linear-gradient"/>
    <linearGradient id="linear-gradient-4" x1="393.98" y1="400.21" x2="26.14" y2="-20.96" xlink:href="#linear-gradient"/>
    <linearGradient id="linear-gradient-5" x1="257.18" y1="519.69" x2="-110.66" y2="98.52" xlink:href="#linear-gradient"/>
    <linearGradient id="linear-gradient-6" x1="441.12" y1="359.04" x2="73.28" y2="-62.13" xlink:href="#linear-gradient"/>
    <linearGradient id="linear-gradient-7" x1="214.01" y1="199.8" x2="157.95" y2="263.99" gradientTransform="matrix(1,0,0,1,0,0)" xlink:href="#linear-gradient"/>
  </defs>
  <g id="BG">
    <g>
      <path class="cls-1" d="m139.4,53.38c8.8,0,16-7.2,16-16,0-1.7-.3-3.3-.7-4.8l28.2-21.6c1.8-1.4,4.3-1.4,6.1,0l160,122.4c1.2.9,2,2.4,2,4v94.9c0,2.8-2.2,5-5,5h-20c-8.3,0-15,6.7-15,15v100.2c0,2.8-2.2,5-5,5h-70c-2.8,0-5-2.2-5-5v-33.1l-10,5.5v27.6c0,8.3,6.7,15,15,15h70c8.3,0,15-6.7,15-15v-100.3c0-2.8,2.2-5,5-5h20c8.3,0,15-6.7,15-15v-94.9c0-4.6-2.2-9.1-5.9-11.9L195,3.07c-5.4-4.1-12.9-4.1-18.2,0l-28,21.4c-2.6-1.9-5.9-3.1-9.4-3.1-8.8,0-16,7.2-16,16s7.2,16,16,16Zm0-22c.5,0,1,.1,1.5.2,2.6.7,4.5,3,4.5,5.8v.1c-.1,3.3-2.7,5.9-6,5.9s-6-2.7-6-6,2.7-6,6-6Z"/>
      <path class="cls-4" d="m62.9,153.37l113.4-87.2c2.4,1.4,5.2,2.3,8.2,2.3,8.8,0,16-7.2,16-16s-7.2-16-16-16-16,7.2-16,16c0,2.2.4,4.3,1.2,6.2l-112.9,86.7c-3.7,2.8-5.9,7.3-5.9,11.9v45.1c0,8.3,6.7,15,15,15h31.5v-10h-31.5c-2.8,0-5-2.2-5-5v-45.1c0-1.5.7-3,2-3.9Zm121.5-107c3.3,0,6,2.7,6,6,0,1.5-.6,2.9-1.5,3.9q-.1.1-.2.2l-1.5,1.2c-.8.4-1.8.7-2.8.7-3.3,0-6-2.7-6-6v-.6c.3-3,2.9-5.4,6-5.4Z"/>
      <path class="cls-6" d="m146.4,386.37c-7.1,0-13.1,4.6-15.2,11H25.9c-2.8,0-5-2.2-5-5v-140.2c0-2.8,2.2-5,5-5h71.5v-10H25.9c-8.3,0-15,6.7-15,15v140.2c0,8.3,6.7,15,15,15h105.3c2.1,6.4,8.1,11,15.2,11,8.8,0,16-7.2,16-16s-7.2-16-16-16Zm-3.3,21c-1.6-1.1-2.7-2.9-2.7-5s1.1-3.9,2.7-5c.9-.6,2.1-1,3.3-1s2.4.4,3.3,1c1.6,1.1,2.7,2.9,2.7,5s-1.1,3.9-2.7,5c-.9.6-2.1,1-3.3,1s-2.4-.4-3.3-1Z"/>
      <path class="cls-7" d="m251.4,86.38c-8.8,0-16,7.2-16,16s7.2,16,16,16c3.2,0,6.2-1,8.7-2.6l48.8,37.6c1.2.9,2,2.4,2,4v45.1c0,2.8-2.2,5-5,5h-30.3v10h30.3c8.3,0,15-6.7,15-15v-45.1c0-4.6-2.2-9.1-5.9-11.9l-48.6-37.5c.7-1.7,1-3.6,1-5.6,0-8.8-7.2-16-16-16Zm6,16c0,3.3-2.7,6-6,6-.3,0-.7,0-1-.1-2.8-.5-5-2.9-5-5.9,0-3.3,2.7-6,6-6,2.8,0,5.2,1.9,5.8,4.5.1.5.2,1,.2,1.5Z"/>
      <path class="cls-3" d="m31.9,202.37c0-7.1-4.6-13.1-11-15.2v-49.9c0-1.5.7-3,2-4l43.2-33c2.6,1.9,5.9,3,9.4,3,8.8,0,16-7.2,16-16s-7.2-16-16-16-16,7.2-16,16c0,1.7.3,3.3.8,4.9l-43.4,33.2c-3.7,2.8-5.9,7.3-5.9,11.9v49.9c-6.4,2.1-11,8.1-11,15.2,0,8.8,7.2,16,16,16s15.9-7.1,15.9-16Zm42.3-120.9c.4-.1.8-.1,1.2-.1,1.2,0,2.3.4,3.3,1,1.1.7,2,1.9,2.4,3.2.2.6.3,1.2.3,1.8,0,.5-.1.9-.2,1.3-.6,2.7-3,4.7-5.8,4.7h-.3c-3.2-.1-5.7-2.8-5.7-6,0-1,.2-1.9.7-2.7.8-1.6,2.3-2.8,4.1-3.2ZM9.9,202.37c0-1.2.4-2.4,1-3.3,1.1-1.6,2.9-2.7,5-2.7s3.9,1.1,5,2.7c.6.9,1,2.1,1,3.3s-.4,2.4-1,3.3c-1.1,1.6-2.9,2.7-5,2.7s-3.9-1.1-5-2.7c-.6-.9-1-2-1-3.3Z"/>
      <path class="cls-2" d="m355.4,265.37c-8.8,0-16,7.2-16,16,0,7.3,4.9,13.4,11.5,15.3v95.7c0,2.8-2.2,5-5,5h-150c-2.8,0-5-2.2-5-5v-20c0-8.3-6.7-15-15-15h-110c-2.8,0-5-2.2-5-5v-56c6.1-2.2,10.5-8.1,10.5-15,0-8.8-7.2-16-16-16s-16,7.2-16,16c0,7.3,4.9,13.4,11.5,15.3v55.7c0,8.3,6.7,15,15,15h110c2.8,0,5,2.2,5,5v20c0,8.3,6.7,15,15,15h150c8.3,0,15-6.7,15-15v-96c6.1-2.2,10.5-8.1,10.5-15,0-8.8-7.2-16-16-16Zm-304.5,12c1.1-1.3,2.7-2,4.5-2,2.5,0,4.6,1.5,5.5,3.6.3.7.5,1.5.5,2.4s-.2,1.7-.5,2.4c-.9,2.1-3,3.6-5.5,3.6-1.8,0-3.4-.8-4.5-2-.9-1.1-1.5-2.4-1.5-4s.6-2.9,1.5-4Zm310,6.4c-.9,2.1-3,3.6-5.5,3.6-1.8,0-3.4-.8-4.5-2-.9-1.1-1.5-2.4-1.5-4s.6-2.9,1.5-4c1.1-1.3,2.7-2,4.5-2,2.5,0,4.6,1.5,5.5,3.6.3.7.5,1.5.5,2.4s-.2,1.7-.5,2.4Z"/>
    </g>
  </g>
  <g id="Cutout">
    <path class="cls-5" d="m185,182.17c-13,0-23.5,10.5-23.5,23.5v7.8c-5,.4-9,4.6-9,9.8v31.5c0,5.4,4.4,9.8,9.8,9.8h45.8c5.4,0,9.8-4.4,9.8-9.8v-31.5c0-5.3-4.2-9.6-9.4-9.8v-7.8c0-13-10.5-23.5-23.5-23.5Zm11.2,31.3h-22.4v-7.8c0-6.2,5-11.2,11.2-11.2s11.2,5,11.2,11.2v7.8Z"/>
  </g>
</svg>