<?xml version="1.0" encoding="UTF-8"?>
<svg id="Layer_2" data-name="Layer 2" xmlns="http://www.w3.org/2000/svg" viewBox="0 0 158.1 205.7">
  <defs>
    <style>
      .cls-1 {
        fill: #152637;
        stroke-width: 0px;
      }
    </style>
  </defs>
  <g id="Shield">
    <g>
      <path class="cls-1" d="m19.8,173.1l59.8,32.6,33.9-18.7,10-5.5,15-8.3c12.1-6.7,19.6-19.4,19.6-33.3V15.6L79.1,0,0,15.6v124.2c0,13.9,7.6,26.6,19.8,33.3Zm26.2-78.8c0-5.2,4-9.4,9-9.8v-7.8c0-13,10.5-23.5,23.5-23.5s23.5,10.5,23.5,23.5v7.8c5.2.2,9.4,4.5,9.4,9.8v31.5c0,5.4-4.4,9.8-9.8,9.8h-45.8c-5.4,0-9.8-4.4-9.8-9.8v-31.5Z"/>
      <path class="cls-1" d="m89.7,76.7c0-6.2-5-11.2-11.2-11.2s-11.2,5-11.2,11.2v7.8h22.4v-7.8Z"/>
    </g>
  </g>
</svg>